<svg width="45" height="45" viewBox="0 0 45 45" fill="none" xmlns="http://www.w3.org/2000/svg">
<path d="M33.1125 21C32.6812 20.4375 32.1562 19.95 31.6687 19.4625C30.4125 18.3375 28.9875 17.5313 27.7875 16.35C24.9937 13.6125 24.375 9.09375 26.1562 5.625C24.375 6.05625 22.8187 7.03125 21.4875 8.1C16.6312 12 14.7187 18.8813 17.0062 24.7875C17.0812 24.975 17.1562 25.1625 17.1562 25.4063C17.1562 25.8188 16.875 26.1938 16.5 26.3438C16.0687 26.5313 15.6187 26.4188 15.2625 26.1188C15.1561 26.0296 15.0671 25.9215 15 25.8C12.8812 23.1188 12.5437 19.275 13.9687 16.2C10.8375 18.75 9.13122 23.0625 9.37497 27.1313C9.48747 28.0688 9.59997 29.0063 9.91872 29.9438C10.1812 31.0688 10.6875 32.1938 11.25 33.1875C13.275 36.4313 16.7812 38.7563 20.55 39.225C24.5625 39.7313 28.8562 39 31.9312 36.225C35.3625 33.1125 36.5625 28.125 34.8 23.85L34.5562 23.3625C34.1625 22.5 33.1125 21 33.1125 21ZM27.1875 32.8125C26.6625 33.2625 25.8 33.75 25.125 33.9375C23.025 34.6875 20.925 33.6375 19.6875 32.4C21.9187 31.875 23.25 30.225 23.6437 28.5562C23.9625 27.0562 23.3625 25.8187 23.1187 24.375C22.8937 22.9875 22.9312 21.8062 23.4375 20.5125C23.7937 21.225 24.1687 21.9375 24.6187 22.5C26.0625 24.375 28.3312 25.2 28.8187 27.75C28.8937 28.0125 28.9312 28.275 28.9312 28.5562C28.9875 30.0937 28.3125 31.7812 27.1875 32.8125Z" fill="white"/>
</svg>
